<svg width="58" height="47" viewBox="0 0 58 47" fill="none" xmlns="http://www.w3.org/2000/svg">
<path d="M6.93695 21.6612H3.40884C2.5547 21.6612 1.86227 20.9688 1.86227 20.1146V20.1146C1.86227 14.5627 6.36302 10.0619 11.915 10.0619H14.549L20.2904 5.43174C23.8465 2.56395 28.2771 1 32.8455 1H39.1463C43.1246 1 46.9399 2.58035 49.7529 5.3934L54.5461 10.1865C55.8588 11.4993 56.5963 13.2798 56.5963 15.1363V19.6612C56.5963 20.7658 55.7009 21.6612 54.5963 21.6612H51.1592M15.6364 21.6612H42.4597" stroke="#F47D45" stroke-width="1.5" stroke-linecap="round" stroke-linejoin="round"/>
<path d="M14.9114 10.0615H54.4214" stroke="#F47D45" stroke-width="1.5" stroke-linecap="round" stroke-linejoin="round"/>
<circle cx="11.2868" cy="19.4861" r="4.7122" stroke="#F47D45" stroke-width="1.5" stroke-linecap="round" stroke-linejoin="round"/>
<circle cx="46.8097" cy="19.4861" r="4.7122" stroke="#F47D45" stroke-width="1.5" stroke-linecap="round" stroke-linejoin="round"/>
<path d="M37.7473 1V12.7465C37.7473 15.8385 36.7281 18.8443 34.8475 21.2987V21.2987" stroke="#F47D45" stroke-width="1.5" stroke-linecap="round" stroke-linejoin="round"/>
<path d="M1.5 25.6484H57.3215V25.6484C55.5098 28.3659 52.4599 29.9982 49.1939 29.9982H8.538C5.55755 29.9982 2.8329 28.3142 1.5 25.6484V25.6484Z" stroke="#F47D45" stroke-width="1.5" stroke-linecap="round" stroke-linejoin="round"/>
<path d="M42.0981 29.9985H21.6936C20.0769 29.9985 19.0253 31.7 19.7484 33.146V33.146C20.1168 33.8828 20.8698 34.3483 21.6936 34.3483H32.6737" stroke="#F47D45" stroke-width="1.5" stroke-linecap="round" stroke-linejoin="round"/>
<path d="M19.2616 31.8103L18.9145 31.4631C17.7049 30.2535 15.7437 30.2535 14.5341 31.4631V31.4631C13.3365 32.6607 13.3229 34.5981 14.5035 35.8124L22.6484 44.19C24.1597 45.7445 26.3371 46.4592 28.4756 46.1028L36.1971 44.8159C37.4705 44.6036 38.7592 44.497 40.0502 44.497H47.8973" stroke="#F47D45" stroke-width="1.5" stroke-linecap="round" stroke-linejoin="round"/>
<rect x="47.8975" y="29.9985" width="7.9745" height="14.4991" stroke="#F47D45" stroke-width="1.5" stroke-linecap="round" stroke-linejoin="round"/>
<path d="M42.0975 31.4482V44.1349" stroke="#F47D45" stroke-width="1.5" stroke-linecap="round" stroke-linejoin="round"/>
</svg>
